<svg width="2560" height="4720" viewBox="0 0 2560 4720" fill="none" xmlns="http://www.w3.org/2000/svg">
<g clip-path="url(#clip0_404_641)">
<rect width="2560" height="4720" fill="#1B1B1B"/>
<g opacity="0.3" filter="url(#filter0_f_404_641)">
<path d="M1068.79 440.365C1348.23 133.229 1443.49 406.474 1784.32 330.22C2415.17 -182.381 2614.16 370.465 2626.87 755.975C2639.57 1141.48 1744.1 582.284 1718.69 798.339C1693.29 1014.39 2004.48 1103.36 2266.98 1323.65C2529.49 1543.94 2328.38 1808.71 2004.48 2098.9C1680.59 2389.1 1358.81 1895.56 1365.16 1584.19C1371.52 1272.81 838.044 1253.75 715.261 929.666C592.478 605.584 789.354 747.502 1068.79 440.365Z" fill="#C4C4C4"/>
<path d="M1068.79 440.365C1348.23 133.229 1443.49 406.474 1784.32 330.22C2415.17 -182.381 2614.16 370.465 2626.87 755.975C2639.57 1141.48 1744.1 582.284 1718.69 798.339C1693.29 1014.39 2004.48 1103.36 2266.98 1323.65C2529.49 1543.94 2328.38 1808.71 2004.48 2098.9C1680.59 2389.1 1358.81 1895.56 1365.16 1584.19C1371.52 1272.81 838.044 1253.75 715.261 929.666C592.478 605.584 789.354 747.502 1068.79 440.365Z" fill="#AD00FF"/>
</g>
<g opacity="0.3" filter="url(#filter1_f_404_641)">
<path d="M895.536 2973.87C1165.03 3219.04 925.273 3302.62 992.181 3601.66C1441.95 4155.15 956.868 4329.74 618.613 4340.88C280.358 4352.03 771.014 3566.37 581.443 3544.08C391.871 3521.79 313.812 3794.82 120.524 4025.13C-72.7648 4255.44 -305.083 4079 -559.703 3794.82C-814.324 3510.65 -381.283 3228.33 -108.077 3233.9C165.129 3239.47 181.856 2771.42 466.213 2663.69C750.57 2555.97 626.048 2728.7 895.536 2973.87Z" fill="#C4C4C4"/>
<path d="M895.536 2973.87C1165.03 3219.04 925.273 3302.62 992.181 3601.66C1441.95 4155.15 956.868 4329.74 618.613 4340.88C280.358 4352.03 771.014 3566.37 581.443 3544.08C391.871 3521.79 313.812 3794.82 120.524 4025.13C-72.7648 4255.44 -305.083 4079 -559.703 3794.82C-814.324 3510.65 -381.283 3228.33 -108.077 3233.9C165.129 3239.47 181.856 2771.42 466.213 2663.69C750.57 2555.97 626.048 2728.7 895.536 2973.87Z" fill="#AD00FF"/>
</g>
</g>
<defs>
<filter id="filter0_f_404_641" x="-322" y="-877" width="3949" height="4064" filterUnits="userSpaceOnUse" color-interpolation-filters="sRGB">
<feFlood flood-opacity="0" result="BackgroundImageFix"/>
<feBlend mode="normal" in="SourceGraphic" in2="BackgroundImageFix" result="shape"/>
<feGaussianBlur stdDeviation="500" result="effect1_foregroundBlur_404_641"/>
</filter>
<filter id="filter1_f_404_641" x="-1637" y="1631" width="3811" height="3710" filterUnits="userSpaceOnUse" color-interpolation-filters="sRGB">
<feFlood flood-opacity="0" result="BackgroundImageFix"/>
<feBlend mode="normal" in="SourceGraphic" in2="BackgroundImageFix" result="shape"/>
<feGaussianBlur stdDeviation="500" result="effect1_foregroundBlur_404_641"/>
</filter>
<clipPath id="clip0_404_641">
<rect width="2560" height="4720" fill="white"/>
</clipPath>
</defs>
</svg>
