<svg width="1522" height="71" viewBox="0 0 1522 71" fill="none" xmlns="http://www.w3.org/2000/svg">
<path d="M26.2444 54.88C22.7777 54.88 19.471 54.2667 16.3244 53.04C13.231 51.76 10.4844 49.9733 8.08438 47.68C5.68438 45.3333 3.79104 42.5067 2.40438 39.2C1.07104 35.8933 0.404375 32.2133 0.404375 28.16C0.404375 24.1067 1.07104 20.4533 2.40438 17.2C3.79104 13.9467 5.68438 11.1733 8.08438 8.88C10.4844 6.58666 13.231 4.82666 16.3244 3.6C19.471 2.37333 22.7777 1.76 26.2444 1.76C29.711 1.76 32.991 2.37333 36.0844 3.6C39.231 4.82666 42.0044 6.58666 44.4044 8.88C46.8044 11.1733 48.671 13.9467 50.0044 17.2C51.391 20.4533 52.0844 24.1067 52.0844 28.16C52.0844 32.2133 51.391 35.8933 50.0044 39.2C48.671 42.5067 46.8044 45.3333 44.4044 47.68C42.0044 49.9733 39.231 51.76 36.0844 53.04C32.991 54.2667 29.711 54.88 26.2444 54.88ZM26.2444 51.52C30.2977 51.52 33.9777 50.56 37.2844 48.64C40.6444 46.6667 43.311 43.92 45.2844 40.4C47.311 36.88 48.3244 32.8 48.3244 28.16C48.3244 23.52 47.311 19.4667 45.2844 16C43.311 12.5333 40.6444 9.84 37.2844 7.92C33.9777 6 30.2977 5.04 26.2444 5.04C22.2444 5.04 18.5644 6 15.2044 7.92C11.8444 9.84 9.15104 12.5333 7.12438 16C5.15104 19.4667 4.16438 23.52 4.16438 28.16C4.16438 32.8 5.15104 36.88 7.12438 40.4C9.15104 43.92 11.8444 46.6667 15.2044 48.64C18.5644 50.56 22.2444 51.52 26.2444 51.52ZM26.8844 44C24.2177 44 21.7644 43.3867 19.5244 42.16C17.3377 40.88 15.5777 39.0667 14.2444 36.72C12.9644 34.32 12.3244 31.4667 12.3244 28.16C12.3244 25.0667 13.0177 22.4 14.4044 20.16C15.791 17.8667 17.6044 16.1067 19.8444 14.88C22.1377 13.6533 24.5644 13.04 27.1244 13.04C29.3644 13.04 31.2577 13.4933 32.8044 14.4C34.4044 15.2533 35.8444 16.32 37.1244 17.6L34.3244 20.72C33.2577 19.6533 32.1644 18.8533 31.0444 18.32C29.9777 17.7333 28.751 17.44 27.3644 17.44C24.431 17.44 22.0577 18.4533 20.2444 20.48C18.4844 22.4533 17.6044 25.0133 17.6044 28.16C17.6044 31.68 18.4577 34.48 20.1644 36.56C21.9244 38.5867 24.2444 39.6 27.1244 39.6C28.831 39.6 30.3244 39.28 31.6044 38.64C32.8844 37.9467 34.111 37.0933 35.2844 36.08L37.6844 39.44C36.191 40.72 34.6177 41.8133 32.9644 42.72C31.311 43.5733 29.2844 44 26.8844 44ZM63.2156 54V1.52H69.8556V48.32H92.8156V54H63.2156ZM102.122 54V1.52H132.362V7.12H108.762V23.6H128.682V29.28H108.762V48.32H133.162V54H102.122ZM164.949 54.96C160.363 54.96 156.283 53.8933 152.709 51.76C149.136 49.5733 146.336 46.4533 144.309 42.4C142.283 38.3467 141.269 33.4667 141.269 27.76C141.269 22.1067 142.309 17.2533 144.389 13.2C146.469 9.14666 149.323 6.02666 152.949 3.84C156.576 1.65333 160.709 0.559997 165.349 0.559997C168.976 0.559997 172.016 1.25333 174.469 2.64C176.976 3.97333 178.976 5.44 180.469 7.04L176.789 11.36C175.456 9.97333 173.909 8.8 172.149 7.84C170.389 6.88 168.176 6.4 165.509 6.4C161.989 6.4 158.923 7.28 156.309 9.04C153.696 10.7467 151.669 13.1733 150.229 16.32C148.843 19.4667 148.149 23.2267 148.149 27.6C148.149 34.2133 149.643 39.4667 152.629 43.36C155.669 47.2 159.989 49.12 165.589 49.12C167.456 49.12 169.243 48.8533 170.949 48.32C172.656 47.7333 174.016 46.96 175.029 46V32.32H163.909V26.8H181.109V48.88C179.456 50.64 177.216 52.1067 174.389 53.28C171.616 54.4 168.469 54.96 164.949 54.96ZM202.412 24.64L199.932 32.64H215.692L213.212 24.64C212.252 21.7067 211.345 18.8 210.492 15.92C209.639 12.9867 208.785 10 207.932 6.96H207.612C206.812 10 205.985 12.9867 205.132 15.92C204.279 18.8 203.372 21.7067 202.412 24.64ZM186.412 54L204.172 1.52H211.692L229.452 54H222.332L217.372 38H198.252L193.212 54H186.412ZM236.888 54V1.52H243.528V48.32H266.488V54H236.888ZM275.794 54V1.52H291.394C294.967 1.52 298.087 1.94666 300.754 2.8C303.474 3.65333 305.58 5.01333 307.074 6.88C308.62 8.74666 309.394 11.2267 309.394 14.32C309.394 16.9333 308.727 19.3067 307.394 21.44C306.114 23.52 304.22 24.96 301.714 25.76V26.08C304.86 26.6667 307.42 28 309.394 30.08C311.42 32.16 312.434 35.0133 312.434 38.64C312.434 42.0533 311.58 44.9067 309.874 47.2C308.22 49.4933 305.9 51.2 302.914 52.32C299.927 53.44 296.46 54 292.514 54H275.794ZM282.434 23.84H290.194C294.674 23.84 297.9 23.0667 299.874 21.52C301.847 19.9733 302.834 17.8667 302.834 15.2C302.834 12.16 301.794 10 299.714 8.72C297.687 7.44 294.62 6.8 290.514 6.8H282.434V23.84ZM282.434 48.72H291.554C296.087 48.72 299.607 47.8933 302.114 46.24C304.62 44.5333 305.874 41.92 305.874 38.4C305.874 35.1467 304.62 32.7733 302.114 31.28C299.66 29.7333 296.14 28.96 291.554 28.96H282.434V48.72ZM322.825 54V1.52H339.225C342.798 1.52 345.972 2 348.745 2.96C351.518 3.86666 353.678 5.41333 355.225 7.6C356.825 9.73333 357.625 12.6133 357.625 16.24C357.625 20.2933 356.558 23.5733 354.425 26.08C352.292 28.5333 349.412 30.2133 345.785 31.12L359.145 54H351.625L338.985 31.84H329.465V54H322.825ZM329.465 26.4H338.265C342.372 26.4 345.518 25.5733 347.705 23.92C349.892 22.2133 350.985 19.6533 350.985 16.24C350.985 12.7733 349.892 10.3467 347.705 8.96C345.518 7.57333 342.372 6.88 338.265 6.88H329.465V26.4ZM377.099 24.64L374.619 32.64H390.379L387.899 24.64C386.939 21.7067 386.033 18.8 385.179 15.92C384.326 12.9867 383.473 10 382.619 6.96H382.299C381.499 10 380.673 12.9867 379.819 15.92C378.966 18.8 378.059 21.7067 377.099 24.64ZM361.099 54L378.859 1.52H386.379L404.139 54H397.019L392.059 38H372.939L367.899 54H361.099ZM411.575 54V1.52H418.215V54H411.575ZM432.591 54V1.52H439.471L458.431 34.48L464.111 45.36H464.431C464.271 42.6933 464.084 39.9467 463.871 37.12C463.711 34.24 463.631 31.4133 463.631 28.64V1.52H469.951V54H463.071L444.031 20.96L438.351 10.16H438.031C438.244 12.7733 438.431 15.4667 438.591 18.24C438.804 21.0133 438.911 23.7867 438.911 26.56V54H432.591ZM498.948 54.96C495.268 54.96 491.854 54.2667 488.708 52.88C485.561 51.44 482.841 49.5467 480.548 47.2L484.548 42.56C486.414 44.5333 488.601 46.1333 491.108 47.36C493.668 48.5333 496.308 49.12 499.028 49.12C502.494 49.12 505.188 48.3467 507.108 46.8C509.028 45.2 509.988 43.12 509.988 40.56C509.988 38.7467 509.588 37.3067 508.788 36.24C508.041 35.1733 507.001 34.2667 505.668 33.52C504.388 32.7733 502.921 32.0267 501.268 31.28L493.748 28C492.094 27.3067 490.441 26.4 488.788 25.28C487.188 24.16 485.828 22.72 484.708 20.96C483.641 19.2 483.108 17.04 483.108 14.48C483.108 11.8133 483.801 9.44 485.188 7.36C486.628 5.22667 488.601 3.57333 491.108 2.4C493.614 1.17333 496.441 0.559997 499.588 0.559997C502.734 0.559997 505.641 1.17333 508.308 2.4C510.974 3.57333 513.241 5.12 515.108 7.04L511.508 11.36C509.908 9.81333 508.121 8.61333 506.148 7.76C504.228 6.85333 502.041 6.4 499.588 6.4C496.654 6.4 494.281 7.09333 492.468 8.48C490.708 9.86666 489.828 11.7333 489.828 14.08C489.828 15.7333 490.254 17.12 491.108 18.24C492.014 19.3067 493.134 20.1867 494.468 20.88C495.801 21.5733 497.161 22.2133 498.548 22.8L505.988 26C508.014 26.8533 509.828 27.8933 511.428 29.12C513.081 30.2933 514.388 31.76 515.348 33.52C516.308 35.2267 516.788 37.3867 516.788 40C516.788 42.7733 516.068 45.3067 514.628 47.6C513.188 49.84 511.134 51.6267 508.468 52.96C505.801 54.2933 502.628 54.96 498.948 54.96ZM539.138 54V50.08C544.258 44.96 548.604 40.48 552.178 36.64C555.751 32.7467 558.471 29.2533 560.338 26.16C562.204 23.0133 563.138 20.08 563.138 17.36C563.138 14.4267 562.338 12.0267 560.738 10.16C559.138 8.29333 556.711 7.36 553.458 7.36C551.324 7.36 549.351 7.97333 547.538 9.2C545.724 10.3733 544.071 11.8133 542.578 13.52L538.818 9.76C540.951 7.41333 543.218 5.54667 545.618 4.16C548.071 2.72 550.951 2 554.258 2C559.004 2 562.738 3.38666 565.458 6.16C568.178 8.88 569.538 12.5067 569.538 17.04C569.538 20.24 568.631 23.4933 566.818 26.8C565.058 30.0533 562.604 33.4933 559.457 37.12C556.364 40.6933 552.791 44.5867 548.738 48.8C550.124 48.6933 551.564 48.5867 553.058 48.48C554.551 48.3733 555.964 48.32 557.298 48.32H572.098V54H539.138ZM595.623 54.96C590.503 54.96 586.476 52.6667 583.543 48.08C580.663 43.44 579.223 36.8533 579.223 28.32C579.223 19.7333 580.663 13.2 583.543 8.72C586.476 4.24 590.503 2 595.623 2C600.69 2 604.663 4.24 607.543 8.72C610.476 13.2 611.943 19.7333 611.943 28.32C611.943 36.8533 610.476 43.44 607.543 48.08C604.663 52.6667 600.69 54.96 595.623 54.96ZM595.623 49.68C598.61 49.68 601.01 48 602.823 44.64C604.636 41.2267 605.543 35.7867 605.543 28.32C605.543 20.8533 604.636 15.4933 602.823 12.24C601.01 8.93333 598.61 7.28 595.623 7.28C592.636 7.28 590.21 8.93333 588.343 12.24C586.53 15.4933 585.623 20.8533 585.623 28.32C585.623 35.7867 586.53 41.2267 588.343 44.64C590.21 48 592.636 49.68 595.623 49.68ZM618.669 54V50.08C623.789 44.96 628.135 40.48 631.709 36.64C635.282 32.7467 638.002 29.2533 639.869 26.16C641.735 23.0133 642.669 20.08 642.669 17.36C642.669 14.4267 641.869 12.0267 640.269 10.16C638.669 8.29333 636.242 7.36 632.989 7.36C630.855 7.36 628.882 7.97333 627.069 9.2C625.255 10.3733 623.602 11.8133 622.109 13.52L618.349 9.76C620.482 7.41333 622.749 5.54667 625.149 4.16C627.602 2.72 630.482 2 633.789 2C638.535 2 642.269 3.38666 644.989 6.16C647.709 8.88 649.069 12.5067 649.069 17.04C649.069 20.24 648.162 23.4933 646.349 26.8C644.589 30.0533 642.135 33.4933 638.989 37.12C635.895 40.6933 632.322 44.5867 628.269 48.8C629.655 48.6933 631.095 48.5867 632.589 48.48C634.082 48.3733 635.495 48.32 636.829 48.32H651.629V54H618.669ZM658.434 54V50.08C663.554 44.96 667.901 40.48 671.474 36.64C675.048 32.7467 677.768 29.2533 679.634 26.16C681.501 23.0133 682.434 20.08 682.434 17.36C682.434 14.4267 681.634 12.0267 680.034 10.16C678.434 8.29333 676.008 7.36 672.754 7.36C670.621 7.36 668.648 7.97333 666.834 9.2C665.021 10.3733 663.368 11.8133 661.874 13.52L658.114 9.76C660.248 7.41333 662.514 5.54667 664.914 4.16C667.368 2.72 670.248 2 673.554 2C678.301 2 682.034 3.38666 684.754 6.16C687.474 8.88 688.834 12.5067 688.834 17.04C688.834 20.24 687.928 23.4933 686.114 26.8C684.354 30.0533 681.901 33.4933 678.754 37.12C675.661 40.6933 672.088 44.5867 668.034 48.8C669.421 48.6933 670.861 48.5867 672.354 48.48C673.848 48.3733 675.261 48.32 676.594 48.32H691.394V54H658.434ZM714.296 36.16V31.6H771.736V36.16H714.296ZM797.576 54V15.12H812.536C816.802 15.12 820.242 15.8933 822.856 17.44C825.522 18.9333 826.856 21.44 826.856 24.96C826.856 27.0933 826.269 28.88 825.096 30.32C823.976 31.7067 822.402 32.6933 820.376 33.28V33.52C822.562 34.0533 824.456 35.04 826.056 36.48C827.709 37.92 828.536 40.0533 828.536 42.88C828.536 46.72 827.096 49.5467 824.216 51.36C821.336 53.12 817.656 54 813.176 54H797.576ZM804.056 31.44H811.416C814.669 31.44 816.989 30.9333 818.376 29.92C819.762 28.8533 820.456 27.4133 820.456 25.6C820.456 23.7867 819.762 22.3733 818.376 21.36C817.042 20.3467 814.882 19.84 811.896 19.84H804.056V31.44ZM804.056 49.28H812.456C815.656 49.28 818.029 48.6933 819.576 47.52C821.176 46.2933 821.976 44.6133 821.976 42.48C821.976 40.5067 821.149 38.96 819.496 37.84C817.842 36.72 815.362 36.16 812.056 36.16H804.056V49.28ZM853.561 54.96C850.147 54.96 847.054 54.16 844.281 52.56C841.507 50.96 839.321 48.64 837.721 45.6C836.121 42.56 835.321 38.9067 835.321 34.64C835.321 30.2667 836.174 26.56 837.881 23.52C839.641 20.48 841.934 18.16 844.761 16.56C847.641 14.96 850.734 14.16 854.041 14.16C856.601 14.16 858.787 14.6133 860.601 15.52C862.467 16.4267 864.067 17.4933 865.401 18.72L862.041 23.04C860.921 22.0267 859.721 21.2 858.441 20.56C857.214 19.92 855.827 19.6 854.281 19.6C851.934 19.6 849.827 20.24 847.961 21.52C846.147 22.7467 844.707 24.5067 843.641 26.8C842.627 29.04 842.121 31.6533 842.121 34.64C842.121 39.0667 843.214 42.6667 845.401 45.44C847.641 48.16 850.547 49.52 854.121 49.52C855.934 49.52 857.614 49.1467 859.161 48.4C860.707 47.6 862.067 46.6667 863.241 45.6L866.121 50C864.361 51.5467 862.414 52.7733 860.281 53.68C858.147 54.5333 855.907 54.96 853.561 54.96ZM888.726 54.96C885.26 54.96 882.113 54.16 879.286 52.56C876.46 50.9067 874.22 48.56 872.566 45.52C870.913 42.48 870.086 38.8533 870.086 34.64C870.086 30.3733 870.913 26.72 872.566 23.68C874.273 20.64 876.46 18.2933 879.126 16.64C881.793 14.9867 884.593 14.16 887.526 14.16C892.486 14.16 896.3 15.8133 898.966 19.12C901.686 22.4267 903.046 26.8533 903.046 32.4C903.046 33.0933 903.02 33.7867 902.966 34.48C902.966 35.12 902.913 35.68 902.806 36.16H876.566C876.833 40.2667 878.113 43.5467 880.406 46C882.753 48.4533 885.793 49.68 889.526 49.68C891.393 49.68 893.1 49.4133 894.646 48.88C896.246 48.2933 897.766 47.5467 899.206 46.64L901.526 50.96C899.873 52.0267 897.98 52.96 895.846 53.76C893.766 54.56 891.393 54.96 888.726 54.96ZM876.486 31.44H897.286C897.286 27.4933 896.433 24.5067 894.726 22.48C893.073 20.4 890.726 19.36 887.686 19.36C884.966 19.36 882.513 20.4267 880.326 22.56C878.193 24.64 876.913 27.6 876.486 31.44ZM928.669 54V15.12H959.789V54H953.229V20.48H935.229V54H928.669ZM972.888 70.4V15.12H978.328L978.888 19.6H979.128C980.888 18.1067 982.808 16.8267 984.888 15.76C987.021 14.6933 989.235 14.16 991.528 14.16C996.541 14.16 1000.35 15.9733 1002.97 19.6C1005.58 23.1733 1006.89 27.9733 1006.89 34C1006.89 38.3733 1006.09 42.1333 1004.49 45.28C1002.94 48.4267 1000.89 50.8267 998.328 52.48C995.821 54.1333 993.075 54.96 990.088 54.96C988.275 54.96 986.461 54.56 984.648 53.76C982.888 52.96 981.101 51.8667 979.288 50.48L979.448 57.28V70.4H972.888ZM988.968 49.44C992.168 49.44 994.808 48.08 996.888 45.36C999.021 42.5867 1000.09 38.8 1000.09 34C1000.09 29.7333 999.288 26.2933 997.688 23.68C996.141 21.0133 993.528 19.68 989.848 19.68C988.195 19.68 986.515 20.1333 984.808 21.04C983.155 21.9467 981.368 23.2533 979.448 24.96V45.36C981.208 46.8533 982.915 47.92 984.568 48.56C986.221 49.1467 987.688 49.44 988.968 49.44ZM1025.13 54.96C1021.88 54.96 1019.16 54 1016.97 52.08C1014.84 50.1067 1013.77 47.3867 1013.77 43.92C1013.77 39.6533 1015.66 36.4 1019.45 34.16C1023.29 31.8667 1029.34 30.2667 1037.61 29.36C1037.61 27.7067 1037.37 26.1333 1036.89 24.64C1036.46 23.1467 1035.66 21.9467 1034.49 21.04C1033.37 20.08 1031.74 19.6 1029.61 19.6C1027.37 19.6 1025.26 20.0267 1023.29 20.88C1021.32 21.7333 1019.56 22.6933 1018.01 23.76L1015.45 19.2C1017.26 18.0267 1019.48 16.9067 1022.09 15.84C1024.76 14.72 1027.64 14.16 1030.73 14.16C1035.48 14.16 1038.92 15.6267 1041.05 18.56C1043.18 21.44 1044.25 25.3067 1044.25 30.16V54H1038.81L1038.25 49.36H1038.01C1036.2 50.8533 1034.2 52.16 1032.01 53.28C1029.88 54.4 1027.58 54.96 1025.13 54.96ZM1027.05 49.68C1028.92 49.68 1030.68 49.2267 1032.33 48.32C1033.98 47.4133 1035.74 46.1333 1037.61 44.48V33.68C1031.16 34.48 1026.62 35.68 1024.01 37.28C1021.45 38.88 1020.17 40.9333 1020.17 43.44C1020.17 45.6267 1020.84 47.2267 1022.17 48.24C1023.5 49.2 1025.13 49.68 1027.05 49.68ZM1056.48 54V15.12H1071.44C1075.71 15.12 1079.15 15.8933 1081.76 17.44C1084.43 18.9333 1085.76 21.44 1085.76 24.96C1085.76 27.0933 1085.18 28.88 1084 30.32C1082.88 31.7067 1081.31 32.6933 1079.28 33.28V33.52C1081.47 34.0533 1083.36 35.04 1084.96 36.48C1086.62 37.92 1087.44 40.0533 1087.44 42.88C1087.44 46.72 1086 49.5467 1083.12 51.36C1080.24 53.12 1076.56 54 1072.08 54H1056.48ZM1062.96 31.44H1070.32C1073.58 31.44 1075.9 30.9333 1077.28 29.92C1078.67 28.8533 1079.36 27.4133 1079.36 25.6C1079.36 23.7867 1078.67 22.3733 1077.28 21.36C1075.95 20.3467 1073.79 19.84 1070.8 19.84H1062.96V31.44ZM1062.96 49.28H1071.36C1074.56 49.28 1076.94 48.6933 1078.48 47.52C1080.08 46.2933 1080.88 44.6133 1080.88 42.48C1080.88 40.5067 1080.06 38.96 1078.4 37.84C1076.75 36.72 1074.27 36.16 1070.96 36.16H1062.96V49.28ZM1106.07 54.96C1102.81 54.96 1100.09 54 1097.91 52.08C1095.77 50.1067 1094.71 47.3867 1094.71 43.92C1094.71 39.6533 1096.6 36.4 1100.39 34.16C1104.23 31.8667 1110.28 30.2667 1118.55 29.36C1118.55 27.7067 1118.31 26.1333 1117.83 24.64C1117.4 23.1467 1116.6 21.9467 1115.43 21.04C1114.31 20.08 1112.68 19.6 1110.55 19.6C1108.31 19.6 1106.2 20.0267 1104.23 20.88C1102.25 21.7333 1100.49 22.6933 1098.95 23.76L1096.39 19.2C1098.2 18.0267 1100.41 16.9067 1103.03 15.84C1105.69 14.72 1108.57 14.16 1111.67 14.16C1116.41 14.16 1119.85 15.6267 1121.99 18.56C1124.12 21.44 1125.19 25.3067 1125.19 30.16V54H1119.75L1119.19 49.36H1118.95C1117.13 50.8533 1115.13 52.16 1112.95 53.28C1110.81 54.4 1108.52 54.96 1106.07 54.96ZM1107.99 49.68C1109.85 49.68 1111.61 49.2267 1113.27 48.32C1114.92 47.4133 1116.68 46.1333 1118.55 44.48V33.68C1112.09 34.48 1107.56 35.68 1104.95 37.28C1102.39 38.88 1101.11 40.9333 1101.11 43.44C1101.11 45.6267 1101.77 47.2267 1103.11 48.24C1104.44 49.2 1106.07 49.68 1107.99 49.68ZM1164.56 54.96C1161.89 54.96 1159.33 54.6133 1156.88 53.92C1154.48 53.1733 1152.13 51.8667 1149.84 50L1152.64 45.76C1154.45 47.2533 1156.29 48.2933 1158.16 48.88C1160.08 49.4133 1162.02 49.68 1164 49.68C1166.66 49.68 1168.93 49.0667 1170.8 47.84C1172.72 46.56 1173.68 44.8533 1173.68 42.72C1173.68 40.5333 1172.8 38.9067 1171.04 37.84C1169.33 36.72 1166.9 36.16 1163.76 36.16H1158.4V31.44H1162.8C1165.94 31.44 1168.29 30.9067 1169.84 29.84C1171.38 28.72 1172.16 27.2 1172.16 25.28C1172.16 23.3067 1171.38 21.84 1169.84 20.88C1168.34 19.8667 1166.42 19.36 1164.08 19.36C1161.84 19.36 1159.89 19.6533 1158.24 20.24C1156.64 20.8267 1155.06 21.68 1153.52 22.8L1150.72 18.48C1152.58 17.1467 1154.64 16.1067 1156.88 15.36C1159.12 14.56 1161.62 14.16 1164.4 14.16C1166.96 14.16 1169.3 14.5333 1171.44 15.28C1173.57 16.0267 1175.28 17.1733 1176.56 18.72C1177.89 20.2667 1178.56 22.24 1178.56 24.64C1178.56 26.5067 1178 28.2133 1176.88 29.76C1175.76 31.3067 1174.18 32.48 1172.16 33.28V33.6C1174.4 34.1867 1176.29 35.2533 1177.84 36.8C1179.44 38.2933 1180.24 40.4533 1180.24 43.28C1180.24 45.68 1179.49 47.76 1178 49.52C1176.56 51.2267 1174.64 52.56 1172.24 53.52C1169.89 54.48 1167.33 54.96 1164.56 54.96ZM1198.88 54.96C1195.63 54.96 1192.91 54 1190.72 52.08C1188.59 50.1067 1187.52 47.3867 1187.52 43.92C1187.52 39.6533 1189.41 36.4 1193.2 34.16C1197.04 31.8667 1203.09 30.2667 1211.36 29.36C1211.36 27.7067 1211.12 26.1333 1210.64 24.64C1210.21 23.1467 1209.41 21.9467 1208.24 21.04C1207.12 20.08 1205.49 19.6 1203.36 19.6C1201.12 19.6 1199.01 20.0267 1197.04 20.88C1195.07 21.7333 1193.31 22.6933 1191.76 23.76L1189.2 19.2C1191.01 18.0267 1193.23 16.9067 1195.84 15.84C1198.51 14.72 1201.39 14.16 1204.48 14.16C1209.23 14.16 1212.67 15.6267 1214.8 18.56C1216.93 21.44 1218 25.3067 1218 30.16V54H1212.56L1212 49.36H1211.76C1209.95 50.8533 1207.95 52.16 1205.76 53.28C1203.63 54.4 1201.33 54.96 1198.88 54.96ZM1200.8 49.68C1202.67 49.68 1204.43 49.2267 1206.08 48.32C1207.73 47.4133 1209.49 46.1333 1211.36 44.48V33.68C1204.91 34.48 1200.37 35.68 1197.76 37.28C1195.2 38.88 1193.92 40.9333 1193.92 43.44C1193.92 45.6267 1194.59 47.2267 1195.92 48.24C1197.25 49.2 1198.88 49.68 1200.8 49.68ZM1230.23 54V15.12H1236.79V48.64H1250.47V15.12H1256.79V48.64H1270.55V15.12H1277.03V48.64H1282.71V52.8L1282.07 67.76H1276.39V54H1230.23ZM1290.78 54V15.12H1297.18V31.28C1297.18 33.36 1297.1 35.6533 1296.94 38.16C1296.83 40.6133 1296.7 43.0933 1296.54 45.6H1296.86C1297.61 44.3733 1298.46 42.9867 1299.42 41.44C1300.43 39.84 1301.29 38.4533 1301.98 37.28L1316.7 15.12H1322.86V54H1316.46V37.84C1316.46 35.76 1316.51 33.4667 1316.62 30.96C1316.78 28.4533 1316.94 25.9467 1317.1 23.44H1316.78C1316.09 24.6133 1315.23 26 1314.22 27.6C1313.21 29.2 1312.35 30.5867 1311.66 31.76L1296.86 54H1290.78ZM1336.01 54V15.12H1342.57V48.64H1356.25V15.12H1362.57V48.64H1376.33V15.12H1382.81V48.64H1388.49V52.8L1387.85 67.76H1382.17V54H1336.01ZM1412.32 54.96C1408.85 54.96 1405.71 54.16 1402.88 52.56C1400.05 50.9067 1397.81 48.56 1396.16 45.52C1394.51 42.48 1393.68 38.8533 1393.68 34.64C1393.68 30.3733 1394.51 26.72 1396.16 23.68C1397.87 20.64 1400.05 18.2933 1402.72 16.64C1405.39 14.9867 1408.19 14.16 1411.12 14.16C1416.08 14.16 1419.89 15.8133 1422.56 19.12C1425.28 22.4267 1426.64 26.8533 1426.64 32.4C1426.64 33.0933 1426.61 33.7867 1426.56 34.48C1426.56 35.12 1426.51 35.68 1426.4 36.16H1400.16C1400.43 40.2667 1401.71 43.5467 1404 46C1406.35 48.4533 1409.39 49.68 1413.12 49.68C1414.99 49.68 1416.69 49.4133 1418.24 48.88C1419.84 48.2933 1421.36 47.5467 1422.8 46.64L1425.12 50.96C1423.47 52.0267 1421.57 52.96 1419.44 53.76C1417.36 54.56 1414.99 54.96 1412.32 54.96ZM1400.08 31.44H1420.88C1420.88 27.4933 1420.03 24.5067 1418.32 22.48C1416.67 20.4 1414.32 19.36 1411.28 19.36C1408.56 19.36 1406.11 20.4267 1403.92 22.56C1401.79 24.64 1400.51 27.6 1400.08 31.44ZM1436.25 54V15.12H1442.81V30.88H1461.53V15.12H1468.09V54H1461.53V36.72H1442.81V54H1436.25ZM1481.17 54V15.12H1487.73V29.44H1493.25C1497.84 29.44 1501.54 30.4 1504.37 32.32C1507.25 34.24 1508.69 37.3333 1508.69 41.6C1508.69 45.92 1507.25 49.0667 1504.37 51.04C1501.54 53.0133 1497.84 54 1493.25 54H1481.17ZM1487.73 48.72H1492.53C1498.98 48.72 1502.21 46.3467 1502.21 41.6C1502.21 39.1467 1501.41 37.36 1499.81 36.24C1498.26 35.12 1495.84 34.56 1492.53 34.56H1487.73V48.72ZM1515.41 54V15.12H1521.97V54H1515.41Z" fill="white"/>
<path d="M791.016 60H1528.53V64H791.016V60Z" fill="white"/>
</svg>
