<svg xmlns="http://www.w3.org/2000/svg" class="logo-svg">
  <path class="rest-of-logo" d="M37.648 49.808H17.194C7.734 49.808 0 42.115 0 32.628V9.615h43.465l7.414 27.436H39.566l-1.918 12.757ZM6.392 16.026v16.602c0 5.962 4.858 10.834 10.802 10.834h14.957l1.918-12.757h8.437l-3.9-14.68H6.393Z"/>
  <path class="hat" d="M43.465 0H0v6.41h43.465V0Z"/>
  <rect class="line" width="6.3" height="36" x="7" y="9" />
  <rect class="line" width="6.3" height="36" x="19" y="9" />
  <rect class="line" width="6.3" height="36" x="31" y="9" />
<!--   <path class="line" d="M24.9282 9.56303H18.5364V45.6476H24.9282V9.56303Z" fill="white"/>
  <path class="line" d="M13.359 9.56303H6.96716V45.6476H13.359V9.56303Z" fill="white"/>
  <path class="line" d="M36.4336 9.56303H30.0417V45.6476H36.4336V9.56303Z" fill="white"/> -->
  <path class="rest-of-logo" d="M64.11 25.32h6.2v1.347h-7.925V9.615h1.725V25.32Z"/>
  <path class="rest-of-logo" d="M74.273 10.961v6.41h6.648v1.347h-6.648v6.474h7.351v1.41h-9.076V9.616h9.076v1.346h-7.35Z"/>
  <path class="rest-of-logo" d="M97.156 10.897c1.343.962 2.237 2.308 2.749 3.91h-1.79a5.766 5.766 0 0 0-2.173-2.756c-1.023-.705-2.237-1.09-3.643-1.09-1.215 0-2.302.321-3.324.898-.96.577-1.79 1.41-2.301 2.5-.576 1.09-.831 2.308-.831 3.782 0 1.474.255 2.756.83 3.846.576 1.09 1.343 1.923 2.366 2.5a6.922 6.922 0 0 0 3.451.898c1.15 0 2.174-.257 3.132-.77a5.79 5.79 0 0 0 2.301-2.18 7.31 7.31 0 0 0 1.023-3.396h-7.031v-1.283h8.437v1.475c-.128 1.474-.511 2.756-1.214 3.91-.703 1.154-1.662 2.051-2.813 2.756a8.346 8.346 0 0 1-4.026 1.026 8.678 8.678 0 0 1-4.283-1.09c-1.278-.705-2.237-1.73-2.94-3.077-.703-1.346-1.023-2.82-1.023-4.487 0-1.666.32-3.205 1.023-4.487.703-1.346 1.662-2.372 2.876-3.077 1.215-.705 2.685-1.09 4.282-1.09 1.918-.128 3.58.32 4.922 1.282Z"/>
  <path class="rest-of-logo" d="M113.264 22.5h-7.734l-1.534 4.167h-1.79L108.47 10h1.917l6.264 16.667h-1.853l-1.534-4.167Zm-.512-1.346-3.323-9.167-3.452 9.167h6.775Z"/>
  <path class="rest-of-logo" d="M120.678 25.32h6.2v1.347h-7.862V9.615h1.726V25.32h-.064Z"/>
  <path class="rest-of-logo" d="M72.74 42.5c.639.77.958 1.667.958 2.756 0 1.347-.447 2.5-1.406 3.334-.959.833-2.301 1.282-4.027 1.282h-5.88V32.82H68.2c1.726 0 3.004.384 3.835 1.153.831.77 1.279 1.795 1.279 3.077 0 1.09-.32 1.987-.895 2.693-.576.64-1.343 1.09-2.301 1.346 1.15.128 1.981.64 2.62 1.41Zm-8.63-2.115h3.9c1.214 0 2.109-.257 2.684-.834.64-.577.959-1.346.959-2.307 0-.962-.32-1.731-.895-2.244-.64-.577-1.534-.833-2.813-.833H64.11v6.218Zm6.84 7.115c.703-.577 1.086-1.41 1.086-2.436s-.383-1.859-1.086-2.436c-.704-.577-1.726-.897-3.005-.897H64.11v6.666h3.9c1.278 0 2.236-.32 2.94-.897Z"/>
  <path class="rest-of-logo" d="m85.779 49.808-4.666-7.116h-2.749v7.116h-1.726V32.82h5.178c1.917 0 3.324.448 4.282 1.346.96.897 1.407 2.115 1.407 3.654 0 1.41-.384 2.564-1.215 3.397-.767.833-1.917 1.346-3.452 1.474l4.794 7.18H85.78v-.064Zm-7.415-8.334h3.388c2.748 0 4.09-1.153 4.09-3.525 0-2.436-1.342-3.654-4.09-3.654h-3.388v7.18Z"/>
  <path class="rest-of-logo" d="M100.16 45.705h-7.734l-1.534 4.167h-1.79l6.264-16.667h1.918l6.264 16.667h-1.854l-1.534-4.167Zm-.51-1.346-3.325-9.167-3.387 9.167h6.711Z"/>
  <path class="rest-of-logo" d="M107.575 32.82v17.052h-1.726V32.82h1.726Z"/>
  <path class="rest-of-logo" d="M123.938 49.808h-1.726l-9.268-14.231v14.23h-1.726V32.822h1.726l9.268 14.23v-14.23h1.726v16.987Z"/>
  <path class="rest-of-logo" d="M137.425 47.692c-.384.705-.895 1.218-1.662 1.667-.767.449-1.726.641-2.812.641-1.087 0-2.046-.192-2.941-.577a5.232 5.232 0 0 1-2.045-1.667c-.511-.705-.831-1.474-.895-2.371h1.79c.064.512.255 1.025.575 1.474.32.513.767.897 1.342 1.218.576.32 1.279.513 2.11.513 1.086 0 1.917-.32 2.492-.898.576-.577.831-1.282.831-2.18 0-.768-.191-1.345-.575-1.858-.383-.449-.831-.834-1.406-1.09-.575-.256-1.342-.513-2.301-.833-1.087-.32-1.918-.641-2.557-.962a4.371 4.371 0 0 1-1.662-1.41c-.447-.641-.703-1.41-.703-2.436 0-1.282.448-2.308 1.342-3.14.895-.834 2.11-1.219 3.708-1.219 1.598 0 2.876.385 3.835 1.154.959.77 1.47 1.795 1.662 2.949h-1.79c-.128-.706-.511-1.346-1.151-1.923-.639-.577-1.47-.834-2.556-.834-1.023 0-1.79.257-2.365.77-.576.512-.895 1.217-.895 2.179 0 .705.192 1.282.575 1.795.384.449.831.77 1.342 1.025.512.257 1.279.513 2.174.834 1.086.32 1.917.64 2.62.961.639.32 1.215.834 1.726 1.475.447.64.703 1.474.703 2.564.064.77-.128 1.474-.511 2.18Z"/>
</svg>
