<svg width="2560" height="4720" fill="none" xmlns="http://www.w3.org/2000/svg"><g clip-path="url('#clip0_404_641')"><path fill="#1B1B1B" d="M0 0h2560v4720H0z"/><g opacity=".3" filter="url('#filter0_f_404_641')"><path d="M1068.79 440.365c279.44-307.136 374.7-33.891 715.53-110.145 630.85-512.601 829.84 40.245 842.55 425.755 12.7 385.505-882.77-173.691-908.18 42.364-25.4 216.051 285.79 305.021 548.29 525.311 262.51 220.29 61.4 485.06-262.5 775.25-323.89 290.2-645.67-203.34-639.32-514.71 6.36-311.38-527.116-330.44-649.899-654.524-122.783-324.082 74.093-182.164 353.529-489.301Z" fill="#C4C4C4"/><path d="M1068.79 440.365c279.44-307.136 374.7-33.891 715.53-110.145 630.85-512.601 829.84 40.245 842.55 425.755 12.7 385.505-882.77-173.691-908.18 42.364-25.4 216.051 285.79 305.021 548.29 525.311 262.51 220.29 61.4 485.06-262.5 775.25-323.89 290.2-645.67-203.34-639.32-514.71 6.36-311.38-527.116-330.44-649.899-654.524-122.783-324.082 74.093-182.164 353.529-489.301Z" fill="#AD00FF"/></g><g opacity=".3" filter="url('#filter1_f_404_641')"><path d="M895.536 2973.87c269.494 245.17 29.737 328.75 96.645 627.79 449.769 553.49-35.313 728.08-373.568 739.22-338.255 11.15 152.401-774.51-37.17-796.8-189.572-22.29-267.631 250.74-460.919 481.05-193.289 230.31-425.607 53.87-680.227-230.31-254.621-284.17 178.42-566.49 451.626-560.92 273.206 5.57 289.933-462.48 574.29-570.21 284.357-107.72 159.835 65.01 429.323 310.18Z" fill="#C4C4C4"/><path d="M895.536 2973.87c269.494 245.17 29.737 328.75 96.645 627.79 449.769 553.49-35.313 728.08-373.568 739.22-338.255 11.15 152.401-774.51-37.17-796.8-189.572-22.29-267.631 250.74-460.919 481.05-193.289 230.31-425.607 53.87-680.227-230.31-254.621-284.17 178.42-566.49 451.626-560.92 273.206 5.57 289.933-462.48 574.29-570.21 284.357-107.72 159.835 65.01 429.323 310.18Z" fill="#AD00FF"/></g></g><defs><filter id="filter0_f_404_641" x="-322" y="-877" width="3949" height="4064" filterUnits="userSpaceOnUse" color-interpolation-filters="sRGB"><feFlood flood-opacity="0" result="BackgroundImageFix"/><feBlend in="SourceGraphic" in2="BackgroundImageFix" result="shape"/><feGaussianBlur stdDeviation="500" result="effect1_foregroundBlur_404_641"/></filter><filter id="filter1_f_404_641" x="-1637" y="1631" width="3811" height="3710" filterUnits="userSpaceOnUse" color-interpolation-filters="sRGB"><feFlood flood-opacity="0" result="BackgroundImageFix"/><feBlend in="SourceGraphic" in2="BackgroundImageFix" result="shape"/><feGaussianBlur stdDeviation="500" result="effect1_foregroundBlur_404_641"/></filter><clipPath id="clip0_404_641"><path fill="#fff" d="M0 0h2560v4720H0z"/></clipPath></defs></svg>