<svg width="1522" height="71" fill="none" xmlns="http://www.w3.org/2000/svg"><path d="M26.244 54.88c-3.466 0-6.773-.613-9.92-1.84a26.47 26.47 0 0 1-8.24-5.36c-2.4-2.347-4.293-5.173-5.68-8.48-1.333-3.307-2-6.987-2-11.04 0-4.053.667-7.707 2-10.96 1.387-3.253 3.28-6.027 5.68-8.32a25.333 25.333 0 0 1 8.24-5.28c3.147-1.227 6.454-1.84 9.92-1.84 3.467 0 6.747.613 9.84 1.84 3.147 1.227 5.92 2.987 8.32 5.28 2.4 2.293 4.267 5.067 5.6 8.32 1.387 3.253 2.08 6.907 2.08 10.96 0 4.053-.693 7.733-2.08 11.04-1.333 3.307-3.2 6.133-5.6 8.48-2.4 2.293-5.173 4.08-8.32 5.36-3.093 1.227-6.373 1.84-9.84 1.84Zm0-3.36c4.054 0 7.734-.96 11.04-2.88 3.36-1.973 6.027-4.72 8-8.24 2.027-3.52 3.04-7.6 3.04-12.24 0-4.64-1.013-8.693-3.04-12.16-1.973-3.467-4.64-6.16-8-8.08-3.306-1.92-6.986-2.88-11.04-2.88-4 0-7.68.96-11.04 2.88-3.36 1.92-6.053 4.613-8.08 8.08-1.973 3.467-2.96 7.52-2.96 12.16 0 4.64.987 8.72 2.96 12.24 2.027 3.52 4.72 6.267 8.08 8.24 3.36 1.92 7.04 2.88 11.04 2.88Zm.64-7.52c-2.666 0-5.12-.613-7.36-1.84-2.186-1.28-3.946-3.093-5.28-5.44-1.28-2.4-1.92-5.253-1.92-8.56 0-3.093.694-5.76 2.08-8 1.387-2.293 3.2-4.053 5.44-5.28 2.294-1.227 4.72-1.84 7.28-1.84 2.24 0 4.134.453 5.68 1.36 1.6.853 3.04 1.92 4.32 3.2l-2.8 3.12c-1.066-1.067-2.16-1.867-3.28-2.4-1.066-.587-2.293-.88-3.68-.88-2.933 0-5.306 1.013-7.12 3.04-1.76 1.973-2.64 4.533-2.64 7.68 0 3.52.854 6.32 2.56 8.4 1.76 2.027 4.08 3.04 6.96 3.04 1.707 0 3.2-.32 4.48-.96a20.758 20.758 0 0 0 3.68-2.56l2.4 3.36a27.755 27.755 0 0 1-4.72 3.28c-1.653.853-3.68 1.28-6.08 1.28Zm36.332 10V1.52h6.64v46.8h22.96V54h-29.6Zm38.906 0V1.52h30.24v5.6h-23.6V23.6h19.92v5.68h-19.92v19.04h24.4V54h-31.04Zm62.827.96c-4.586 0-8.666-1.067-12.24-3.2-3.573-2.187-6.373-5.307-8.4-9.36-2.026-4.053-3.04-8.933-3.04-14.64 0-5.653 1.04-10.507 3.12-14.56 2.08-4.053 4.934-7.173 8.56-9.36 3.627-2.187 7.76-3.28 12.4-3.28 3.627 0 6.667.693 9.12 2.08 2.507 1.333 4.507 2.8 6 4.4l-3.68 4.32a19.018 19.018 0 0 0-4.64-3.52c-1.76-.96-3.973-1.44-6.64-1.44-3.52 0-6.586.88-9.2 2.64-2.613 1.707-4.64 4.133-6.08 7.28-1.386 3.147-2.08 6.907-2.08 11.28 0 6.613 1.494 11.867 4.48 15.76 3.04 3.84 7.36 5.76 12.96 5.76 1.867 0 3.654-.267 5.36-.8 1.707-.587 3.067-1.36 4.08-2.32V32.32h-11.12V26.8h17.2v22.08c-1.653 1.76-3.893 3.227-6.72 4.4-2.773 1.12-5.92 1.68-9.44 1.68Zm37.463-30.32-2.48 8h15.76l-2.48-8a322.37 322.37 0 0 1-2.72-8.72 987.395 987.395 0 0 1-2.56-8.96h-.32c-.8 3.04-1.627 6.027-2.48 8.96a322.37 322.37 0 0 1-2.72 8.72Zm-16 29.36 17.76-52.48h7.52L229.452 54h-7.12l-4.96-16h-19.12l-5.04 16h-6.8Zm50.476 0V1.52h6.64v46.8h22.96V54h-29.6Zm38.906 0V1.52h15.6c3.573 0 6.693.427 9.36 1.28 2.72.853 4.826 2.213 6.32 4.08 1.546 1.867 2.32 4.347 2.32 7.44 0 2.613-.667 4.987-2 7.12-1.28 2.08-3.174 3.52-5.68 4.32v.32c3.146.587 5.706 1.92 7.68 4 2.026 2.08 3.04 4.933 3.04 8.56 0 3.413-.854 6.267-2.56 8.56-1.654 2.293-3.974 4-6.96 5.12-2.987 1.12-6.454 1.68-10.4 1.68h-16.72Zm6.64-30.16h7.76c4.48 0 7.706-.773 9.68-2.32 1.973-1.547 2.96-3.653 2.96-6.32 0-3.04-1.04-5.2-3.12-6.48-2.027-1.28-5.094-1.92-9.2-1.92h-8.08v17.04Zm0 24.88h9.12c4.533 0 8.053-.827 10.56-2.48 2.506-1.707 3.76-4.32 3.76-7.84 0-3.253-1.254-5.627-3.76-7.12-2.454-1.547-5.974-2.32-10.56-2.32h-9.12v19.76ZM322.825 54V1.52h16.4c3.573 0 6.747.48 9.52 1.44 2.773.907 4.933 2.453 6.48 4.64 1.6 2.133 2.4 5.013 2.4 8.64 0 4.053-1.067 7.333-3.2 9.84-2.133 2.453-5.013 4.133-8.64 5.04L359.145 54h-7.52l-12.64-22.16h-9.52V54h-6.64Zm6.64-27.6h8.8c4.107 0 7.253-.827 9.44-2.48 2.187-1.707 3.28-4.267 3.28-7.68 0-3.467-1.093-5.893-3.28-7.28-2.187-1.387-5.333-2.08-9.44-2.08h-8.8V26.4Zm47.634-1.76-2.48 8h15.76l-2.48-8c-.96-2.933-1.866-5.84-2.72-8.72-.853-2.933-1.706-5.92-2.56-8.96h-.32c-.8 3.04-1.626 6.027-2.48 8.96a322.37 322.37 0 0 1-2.72 8.72Zm-16 29.36 17.76-52.48h7.52L404.139 54h-7.12l-4.96-16h-19.12l-5.04 16h-6.8Zm50.476 0V1.52h6.64V54h-6.64Zm21.016 0V1.52h6.88l18.96 32.96 5.68 10.88h.32a540.87 540.87 0 0 0-.56-8.24c-.16-2.88-.24-5.707-.24-8.48V1.52h6.32V54h-6.88l-19.04-33.04-5.68-10.8h-.32c.213 2.613.4 5.307.56 8.08.213 2.773.32 5.547.32 8.32V54h-6.32Zm66.357.96c-3.68 0-7.094-.693-10.24-2.08-3.147-1.44-5.867-3.333-8.16-5.68l4-4.64c1.866 1.973 4.053 3.573 6.56 4.8 2.56 1.173 5.2 1.76 7.92 1.76 3.466 0 6.16-.773 8.08-2.32 1.92-1.6 2.88-3.68 2.88-6.24 0-1.813-.4-3.253-1.2-4.32-.747-1.067-1.787-1.973-3.12-2.72a47.928 47.928 0 0 0-4.4-2.24l-7.52-3.28c-1.654-.693-3.307-1.6-4.96-2.72-1.6-1.12-2.96-2.56-4.08-4.32-1.067-1.76-1.6-3.92-1.6-6.48 0-2.667.693-5.04 2.08-7.12 1.44-2.133 3.413-3.787 5.92-4.96 2.506-1.227 5.333-1.84 8.48-1.84 3.146 0 6.053.613 8.72 1.84 2.666 1.173 4.933 2.72 6.8 4.64l-3.6 4.32a17.881 17.881 0 0 0-5.36-3.6c-1.92-.907-4.107-1.36-6.56-1.36-2.934 0-5.307.693-7.12 2.08-1.76 1.387-2.64 3.253-2.64 5.6 0 1.653.426 3.04 1.28 4.16.906 1.067 2.026 1.947 3.36 2.64a56.764 56.764 0 0 0 4.08 1.92l7.44 3.2c2.026.853 3.84 1.893 5.44 3.12a12.922 12.922 0 0 1 3.92 4.4c.96 1.707 1.44 3.867 1.44 6.48 0 2.773-.72 5.307-2.16 7.6-1.44 2.24-3.494 4.027-6.16 5.36-2.667 1.333-5.84 2-9.52 2Zm40.19-.96v-3.92c5.12-5.12 9.466-9.6 13.04-13.44 3.573-3.893 6.293-7.387 8.16-10.48 1.866-3.147 2.8-6.08 2.8-8.8 0-2.933-.8-5.333-2.4-7.2-1.6-1.867-4.027-2.8-7.28-2.8-2.134 0-4.107.613-5.92 1.84a23.635 23.635 0 0 0-4.96 4.32l-3.76-3.76c2.133-2.347 4.4-4.213 6.8-5.6 2.453-1.44 5.333-2.16 8.64-2.16 4.746 0 8.48 1.387 11.2 4.16 2.72 2.72 4.08 6.347 4.08 10.88 0 3.2-.907 6.453-2.72 9.76-1.76 3.253-4.214 6.693-7.361 10.32-3.093 3.573-6.666 7.467-10.719 11.68 1.386-.107 2.826-.213 4.32-.32a59.605 59.605 0 0 1 4.24-.16h14.8V54h-32.96Zm56.485.96c-5.12 0-9.147-2.293-12.08-6.88-2.88-4.64-4.32-11.227-4.32-19.76 0-8.587 1.44-15.12 4.32-19.6 2.933-4.48 6.96-6.72 12.08-6.72 5.067 0 9.04 2.24 11.92 6.72 2.933 4.48 4.4 11.013 4.4 19.6 0 8.533-1.467 15.12-4.4 19.76-2.88 4.587-6.853 6.88-11.92 6.88Zm0-5.28c2.987 0 5.387-1.68 7.2-5.04 1.813-3.413 2.72-8.853 2.72-16.32 0-7.467-.907-12.827-2.72-16.08-1.813-3.307-4.213-4.96-7.2-4.96s-5.413 1.653-7.28 4.96c-1.813 3.253-2.72 8.613-2.72 16.08 0 7.467.907 12.907 2.72 16.32 1.867 3.36 4.293 5.04 7.28 5.04ZM618.669 54v-3.92c5.12-5.12 9.466-9.6 13.04-13.44 3.573-3.893 6.293-7.387 8.16-10.48 1.866-3.147 2.8-6.08 2.8-8.8 0-2.933-.8-5.333-2.4-7.2-1.6-1.867-4.027-2.8-7.28-2.8-2.134 0-4.107.613-5.92 1.84a23.635 23.635 0 0 0-4.96 4.32l-3.76-3.76c2.133-2.347 4.4-4.213 6.8-5.6 2.453-1.44 5.333-2.16 8.64-2.16 4.746 0 8.48 1.387 11.2 4.16 2.72 2.72 4.08 6.347 4.08 10.88 0 3.2-.907 6.453-2.72 9.76-1.76 3.253-4.214 6.693-7.36 10.32-3.094 3.573-6.667 7.467-10.72 11.68 1.386-.107 2.826-.213 4.32-.32a59.605 59.605 0 0 1 4.24-.16h14.8V54h-32.96Zm39.765 0v-3.92c5.12-5.12 9.467-9.6 13.04-13.44 3.574-3.893 6.294-7.387 8.16-10.48 1.867-3.147 2.8-6.08 2.8-8.8 0-2.933-.8-5.333-2.4-7.2-1.6-1.867-4.026-2.8-7.28-2.8-2.133 0-4.106.613-5.92 1.84a23.685 23.685 0 0 0-4.96 4.32l-3.76-3.76c2.134-2.347 4.4-4.213 6.8-5.6 2.454-1.44 5.334-2.16 8.64-2.16 4.747 0 8.48 1.387 11.2 4.16 2.72 2.72 4.08 6.347 4.08 10.88 0 3.2-.906 6.453-2.72 9.76-1.76 3.253-4.213 6.693-7.36 10.32-3.093 3.573-6.666 7.467-10.72 11.68 1.387-.107 2.827-.213 4.32-.32a59.649 59.649 0 0 1 4.24-.16h14.8V54h-32.96Zm55.862-17.84V31.6h57.44v4.56h-57.44ZM797.576 54V15.12h14.96c4.266 0 7.706.773 10.32 2.32 2.666 1.493 4 4 4 7.52 0 2.133-.587 3.92-1.76 5.36-1.12 1.387-2.694 2.373-4.72 2.96v.24c2.186.533 4.08 1.52 5.68 2.96 1.653 1.44 2.48 3.573 2.48 6.4 0 3.84-1.44 6.667-4.32 8.48-2.88 1.76-6.56 2.64-11.04 2.64h-15.6Zm6.48-22.56h7.36c3.253 0 5.573-.507 6.96-1.52 1.386-1.067 2.08-2.507 2.08-4.32 0-1.813-.694-3.227-2.08-4.24-1.334-1.013-3.494-1.52-6.48-1.52h-7.84v11.6Zm0 17.84h8.4c3.2 0 5.573-.587 7.12-1.76 1.6-1.227 2.4-2.907 2.4-5.04 0-1.973-.827-3.52-2.48-4.64-1.654-1.12-4.134-1.68-7.44-1.68h-8v13.12Zm49.505 5.68c-3.414 0-6.507-.8-9.28-2.4-2.774-1.6-4.96-3.92-6.56-6.96-1.6-3.04-2.4-6.693-2.4-10.96 0-4.373.853-8.08 2.56-11.12 1.76-3.04 4.053-5.36 6.88-6.96 2.88-1.6 5.973-2.4 9.28-2.4 2.56 0 4.746.453 6.56 1.36 1.866.907 3.466 1.973 4.8 3.2l-3.36 4.32a16.07 16.07 0 0 0-3.6-2.48c-1.227-.64-2.614-.96-4.16-.96-2.347 0-4.454.64-6.32 1.92-1.814 1.227-3.254 2.987-4.32 5.28-1.014 2.24-1.52 4.853-1.52 7.84 0 4.427 1.093 8.027 3.28 10.8 2.24 2.72 5.146 4.08 8.72 4.08 1.813 0 3.493-.373 5.04-1.12 1.546-.8 2.906-1.733 4.08-2.8l2.88 4.4a21.592 21.592 0 0 1-5.84 3.68 17.933 17.933 0 0 1-6.72 1.28Zm35.165 0c-3.466 0-6.613-.8-9.44-2.4-2.826-1.653-5.066-4-6.72-7.04-1.653-3.04-2.48-6.667-2.48-10.88 0-4.267.827-7.92 2.48-10.96 1.707-3.04 3.894-5.387 6.56-7.04 2.667-1.653 5.467-2.48 8.4-2.48 4.96 0 8.774 1.653 11.44 4.96 2.72 3.307 4.08 7.733 4.08 13.28 0 .693-.026 1.387-.08 2.08 0 .64-.053 1.2-.16 1.68h-26.24c.267 4.107 1.547 7.387 3.84 9.84 2.347 2.453 5.387 3.68 9.12 3.68 1.867 0 3.574-.267 5.12-.8 1.6-.587 3.12-1.333 4.56-2.24l2.32 4.32c-1.653 1.067-3.546 2-5.68 2.8-2.08.8-4.453 1.2-7.12 1.2Zm-12.24-23.52h20.8c0-3.947-.853-6.933-2.56-8.96-1.653-2.08-4-3.12-7.04-3.12-2.72 0-5.173 1.067-7.36 3.2-2.133 2.08-3.413 5.04-3.84 8.88ZM928.669 54V15.12h31.12V54h-6.56V20.48h-18V54h-6.56Zm44.219 16.4V15.12h5.44l.56 4.48h.24a30.1 30.1 0 0 1 5.76-3.84c2.133-1.067 4.347-1.6 6.64-1.6 5.013 0 8.822 1.813 11.442 5.44 2.61 3.573 3.92 8.373 3.92 14.4 0 4.373-.8 8.133-2.4 11.28-1.55 3.147-3.6 5.547-6.162 7.2-2.507 1.653-5.253 2.48-8.24 2.48-1.813 0-3.627-.4-5.44-1.2-1.76-.8-3.547-1.893-5.36-3.28l.16 6.8V70.4h-6.56Zm16.08-20.96c3.2 0 5.84-1.36 7.92-4.08 2.133-2.773 3.202-6.56 3.202-11.36 0-4.267-.802-7.707-2.402-10.32-1.547-2.667-4.16-4-7.84-4-1.653 0-3.333.453-5.04 1.36-1.653.907-3.44 2.213-5.36 3.92v20.4c1.76 1.493 3.467 2.56 5.12 3.2 1.653.587 3.12.88 4.4.88Zm36.162 5.52c-3.25 0-5.97-.96-8.16-2.88-2.13-1.973-3.2-4.693-3.2-8.16 0-4.267 1.89-7.52 5.68-9.76 3.84-2.293 9.89-3.893 18.16-4.8 0-1.653-.24-3.227-.72-4.72-.43-1.493-1.23-2.693-2.4-3.6-1.12-.96-2.75-1.44-4.88-1.44-2.24 0-4.35.427-6.32 1.28-1.97.853-3.73 1.813-5.28 2.88l-2.56-4.56c1.81-1.173 4.03-2.293 6.64-3.36 2.67-1.12 5.55-1.68 8.64-1.68 4.75 0 8.19 1.467 10.32 4.4 2.13 2.88 3.2 6.747 3.2 11.6V54h-5.44l-.56-4.64h-.24a32.998 32.998 0 0 1-6 3.92c-2.13 1.12-4.43 1.68-6.88 1.68Zm1.92-5.28c1.87 0 3.63-.453 5.28-1.36 1.65-.907 3.41-2.187 5.28-3.84v-10.8c-6.45.8-10.99 2-13.6 3.6-2.56 1.6-3.84 3.653-3.84 6.16 0 2.187.67 3.787 2 4.8 1.33.96 2.96 1.44 4.88 1.44Zm29.43 4.32V15.12h14.96c4.27 0 7.71.773 10.32 2.32 2.67 1.493 4 4 4 7.52 0 2.133-.58 3.92-1.76 5.36-1.12 1.387-2.69 2.373-4.72 2.96v.24c2.19.533 4.08 1.52 5.68 2.96 1.66 1.44 2.48 3.573 2.48 6.4 0 3.84-1.44 6.667-4.32 8.48-2.88 1.76-6.56 2.64-11.04 2.64h-15.6Zm6.48-22.56h7.36c3.26 0 5.58-.507 6.96-1.52 1.39-1.067 2.08-2.507 2.08-4.32 0-1.813-.69-3.227-2.08-4.24-1.33-1.013-3.49-1.52-6.48-1.52h-7.84v11.6Zm0 17.84h8.4c3.2 0 5.58-.587 7.12-1.76 1.6-1.227 2.4-2.907 2.4-5.04 0-1.973-.82-3.52-2.48-4.64-1.65-1.12-4.13-1.68-7.44-1.68h-8v13.12Zm43.11 5.68c-3.26 0-5.98-.96-8.16-2.88-2.14-1.973-3.2-4.693-3.2-8.16 0-4.267 1.89-7.52 5.68-9.76 3.84-2.293 9.89-3.893 18.16-4.8 0-1.653-.24-3.227-.72-4.72-.43-1.493-1.23-2.693-2.4-3.6-1.12-.96-2.75-1.44-4.88-1.44-2.24 0-4.35.427-6.32 1.28-1.98.853-3.74 1.813-5.28 2.88l-2.56-4.56c1.81-1.173 4.02-2.293 6.64-3.36 2.66-1.12 5.54-1.68 8.64-1.68 4.74 0 8.18 1.467 10.32 4.4 2.13 2.88 3.2 6.747 3.2 11.6V54h-5.44l-.56-4.64h-.24a33.703 33.703 0 0 1-6 3.92 14.611 14.611 0 0 1-6.88 1.68Zm1.92-5.28c1.86 0 3.62-.453 5.28-1.36 1.65-.907 3.41-2.187 5.28-3.84v-10.8c-6.46.8-10.99 2-13.6 3.6-2.56 1.6-3.84 3.653-3.84 6.16 0 2.187.66 3.787 2 4.8 1.33.96 2.96 1.44 4.88 1.44Zm56.57 5.28c-2.67 0-5.23-.347-7.68-1.04-2.4-.747-4.75-2.053-7.04-3.92l2.8-4.24c1.81 1.493 3.65 2.533 5.52 3.12 1.92.533 3.86.8 5.84.8 2.66 0 4.93-.613 6.8-1.84 1.92-1.28 2.88-2.987 2.88-5.12 0-2.187-.88-3.813-2.64-4.88-1.71-1.12-4.14-1.68-7.28-1.68h-5.36v-4.72h4.4c3.14 0 5.49-.533 7.04-1.6 1.54-1.12 2.32-2.64 2.32-4.56 0-1.973-.78-3.44-2.32-4.4-1.5-1.013-3.42-1.52-5.76-1.52-2.24 0-4.19.293-5.84.88-1.6.587-3.18 1.44-4.72 2.56l-2.8-4.32a22.997 22.997 0 0 1 6.16-3.12c2.24-.8 4.74-1.2 7.52-1.2 2.56 0 4.9.373 7.04 1.12 2.13.747 3.84 1.893 5.12 3.44 1.33 1.547 2 3.52 2 5.92 0 1.867-.56 3.573-1.68 5.12-1.12 1.547-2.7 2.72-4.72 3.52v.32c2.24.587 4.13 1.653 5.68 3.2 1.6 1.493 2.4 3.653 2.4 6.48 0 2.4-.75 4.48-2.24 6.24-1.44 1.707-3.36 3.04-5.76 4-2.35.96-4.91 1.44-7.68 1.44Zm34.32 0c-3.25 0-5.97-.96-8.16-2.88-2.13-1.973-3.2-4.693-3.2-8.16 0-4.267 1.89-7.52 5.68-9.76 3.84-2.293 9.89-3.893 18.16-4.8 0-1.653-.24-3.227-.72-4.72-.43-1.493-1.23-2.693-2.4-3.6-1.12-.96-2.75-1.44-4.88-1.44-2.24 0-4.35.427-6.32 1.28-1.97.853-3.73 1.813-5.28 2.88l-2.56-4.56c1.81-1.173 4.03-2.293 6.64-3.36 2.67-1.12 5.55-1.68 8.64-1.68 4.75 0 8.19 1.467 10.32 4.4 2.13 2.88 3.2 6.747 3.2 11.6V54h-5.44l-.56-4.64h-.24a32.998 32.998 0 0 1-6 3.92c-2.13 1.12-4.43 1.68-6.88 1.68Zm1.92-5.28c1.87 0 3.63-.453 5.28-1.36 1.65-.907 3.41-2.187 5.28-3.84v-10.8c-6.45.8-10.99 2-13.6 3.6-2.56 1.6-3.84 3.653-3.84 6.16 0 2.187.67 3.787 2 4.8 1.33.96 2.96 1.44 4.88 1.44Zm29.43 4.32V15.12h6.56v33.52h13.68V15.12h6.32v33.52h13.76V15.12h6.48v33.52h5.68v4.16l-.64 14.96h-5.68V54h-46.16Zm60.55 0V15.12h6.4v16.16c0 2.08-.08 4.373-.24 6.88-.11 2.453-.24 4.933-.4 7.44h.32c.75-1.227 1.6-2.613 2.56-4.16 1.01-1.6 1.87-2.987 2.56-4.16l14.72-22.16h6.16V54h-6.4V37.84c0-2.08.05-4.373.16-6.88l.48-7.52h-.32c-.69 1.173-1.55 2.56-2.56 4.16s-1.87 2.987-2.56 4.16L1296.86 54h-6.08Zm45.23 0V15.12h6.56v33.52h13.68V15.12h6.32v33.52h13.76V15.12h6.48v33.52h5.68v4.16l-.64 14.96h-5.68V54h-46.16Zm76.31.96c-3.47 0-6.61-.8-9.44-2.4-2.83-1.653-5.07-4-6.72-7.04-1.65-3.04-2.48-6.667-2.48-10.88 0-4.267.83-7.92 2.48-10.96 1.71-3.04 3.89-5.387 6.56-7.04 2.67-1.653 5.47-2.48 8.4-2.48 4.96 0 8.77 1.653 11.44 4.96 2.72 3.307 4.08 7.733 4.08 13.28 0 .693-.03 1.387-.08 2.08 0 .64-.05 1.2-.16 1.68h-26.24c.27 4.107 1.55 7.387 3.84 9.84 2.35 2.453 5.39 3.68 9.12 3.68 1.87 0 3.57-.267 5.12-.8 1.6-.587 3.12-1.333 4.56-2.24l2.32 4.32c-1.65 1.067-3.55 2-5.68 2.8-2.08.8-4.45 1.2-7.12 1.2Zm-12.24-23.52h20.8c0-3.947-.85-6.933-2.56-8.96-1.65-2.08-4-3.12-7.04-3.12-2.72 0-5.17 1.067-7.36 3.2-2.13 2.08-3.41 5.04-3.84 8.88ZM1436.25 54V15.12h6.56v15.76h18.72V15.12h6.56V54h-6.56V36.72h-18.72V54h-6.56Zm44.92 0V15.12h6.56v14.32h5.52c4.59 0 8.29.96 11.12 2.88 2.88 1.92 4.32 5.013 4.32 9.28 0 4.32-1.44 7.467-4.32 9.44-2.83 1.973-6.53 2.96-11.12 2.96h-12.08Zm6.56-5.28h4.8c6.45 0 9.68-2.373 9.68-7.12 0-2.453-.8-4.24-2.4-5.36-1.55-1.12-3.97-1.68-7.28-1.68h-4.8v14.16Zm27.68 5.28V15.12h6.56V54h-6.56Z" fill="#fff"/><path d="M791.016 60h737.514v4H791.016v-4Z" fill="#fff"/></svg>